<svg width="23" height="21" viewBox="0 0 23 21" fill="none" xmlns="http://www.w3.org/2000/svg">
<path d="M6.73325 15.1239V12.1052H9.98344V11.3046H6.73325V8.92631H10.2752V8.12568H5.75V15.1239H6.73325ZM11.4713 15.1239H12.443V11.7862C12.443 11.0591 12.7693 10.4646 13.8129 10.4646C13.9926 10.4646 14.1838 10.4698 14.2859 10.4842V9.67968C14.165 9.6631 14.043 9.65432 13.9207 9.65343C13.0841 9.65343 12.6399 10.0734 12.466 10.3976H12.4373V9.73612H11.4713V15.1239ZM15.5034 8.43937C15.5034 8.75175 15.7794 8.99718 16.1216 8.99718C16.2048 9.00086 16.2879 8.98907 16.366 8.96253C16.444 8.93599 16.5154 8.89526 16.5757 8.84279C16.636 8.79033 16.684 8.72723 16.7168 8.65732C16.7496 8.58741 16.7665 8.51215 16.7665 8.43609C16.7665 8.36003 16.7496 8.28477 16.7168 8.21486C16.684 8.14495 16.636 8.08185 16.5757 8.02939C16.5154 7.97692 16.444 7.93619 16.366 7.90965C16.2879 7.88311 16.2048 7.87132 16.1216 7.875C16.0402 7.8743 15.9595 7.88841 15.8841 7.91653C15.8088 7.94464 15.7403 7.98619 15.6828 8.03874C15.6252 8.09128 15.5797 8.15378 15.5489 8.22257C15.5181 8.29136 15.5027 8.36506 15.5034 8.43937ZM15.6386 15.1239H16.6046V9.73612H15.6386V15.1239Z" fill="black"/>
<path d="M5.03125 0C5.22187 0 5.40469 0.0691404 5.53948 0.192211C5.67427 0.315282 5.75 0.482202 5.75 0.65625V1.3125H17.25V0.65625C17.25 0.482202 17.3257 0.315282 17.4605 0.192211C17.5953 0.0691404 17.7781 0 17.9688 0C18.1594 0 18.3422 0.0691404 18.477 0.192211C18.6118 0.315282 18.6875 0.482202 18.6875 0.65625V1.3125H20.125C20.8875 1.3125 21.6188 1.58906 22.1579 2.08134C22.6971 2.57363 23 3.24131 23 3.9375V18.375C23 19.0712 22.6971 19.7389 22.1579 20.2312C21.6188 20.7234 20.8875 21 20.125 21H2.875C2.1125 21 1.38124 20.7234 0.842068 20.2312C0.302901 19.7389 0 19.0712 0 18.375V3.9375C0 3.24131 0.302901 2.57363 0.842068 2.08134C1.38124 1.58906 2.1125 1.3125 2.875 1.3125H4.3125V0.65625C4.3125 0.482202 4.38823 0.315282 4.52302 0.192211C4.65781 0.0691404 4.84063 0 5.03125 0V0ZM1.4375 5.25V18.375C1.4375 18.7231 1.58895 19.0569 1.85853 19.3031C2.12812 19.5492 2.49375 19.6875 2.875 19.6875H20.125C20.5062 19.6875 20.8719 19.5492 21.1415 19.3031C21.411 19.0569 21.5625 18.7231 21.5625 18.375V5.25H1.4375Z" fill="black"/>
</svg>
