<svg width="22" height="26" viewBox="0 0 22 26" fill="none" xmlns="http://www.w3.org/2000/svg">
<path d="M20.8665 5.18779C21.1756 5.18779 21.4418 5.32003 21.6651 5.58451C21.8884 5.84898 22 6.14398 22 6.46948V26L17.5691 20.8122H5.51288C5.20375 20.8122 4.93755 20.68 4.71429 20.4155C4.49102 20.151 4.37939 19.856 4.37939 19.5305V16.9061H18.7026V5.18779H20.8665ZM16.4871 13C16.4871 13.3662 16.3755 13.6714 16.1522 13.9155C15.929 14.1596 15.6799 14.2817 15.4052 14.2817H4.37939L0 19.5305V1.28169C0 0.915493 0.111632 0.610329 0.334895 0.366197C0.558158 0.122066 0.807182 0 1.08197 0H15.4052C15.6799 0 15.929 0.122066 16.1522 0.366197C16.3755 0.610329 16.4871 0.915493 16.4871 1.28169V13Z" fill="black"/>
</svg>
