<svg width="23" height="22" viewBox="0 0 23 22" fill="none" xmlns="http://www.w3.org/2000/svg">
<path d="M11.5 0C5.14857 0 0 4.92472 0 11C0 17.0753 5.14857 22 11.5 22C17.8514 22 23 17.0753 23 11C23 4.92472 17.8514 0 11.5 0ZM18.9194 9.55847V9.86585C18.9194 10.1262 18.7654 10.3644 18.522 10.4806L17.8083 10.8221C17.695 10.8764 17.5687 10.901 17.4422 10.8934C17.3157 10.8859 17.1936 10.8464 17.0882 10.7791L16.2437 10.2406C16.1527 10.1826 16.0489 10.1452 15.9404 10.1313C15.832 10.1174 15.7216 10.1273 15.6177 10.1604L15.4949 10.1994C15.0451 10.3427 14.8614 10.8554 15.1244 11.2329L15.7383 12.1137C15.8714 12.3049 16.0958 12.4198 16.336 12.4198H16.7167C17.1137 12.4198 17.4355 12.7276 17.4355 13.1073V13.6103C17.4355 13.7589 17.3849 13.9039 17.2917 14.0228L16.4227 15.1308C16.3569 15.215 16.3119 15.3126 16.2915 15.416L16.0921 16.4286C16.0634 16.5745 15.9859 16.7076 15.8714 16.8083C15.4319 17.1932 15.0427 17.6275 14.7121 18.1017L14.1079 18.9688C13.9904 19.1374 13.8312 19.2757 13.6444 19.3713C13.4576 19.4669 13.2491 19.517 13.0372 19.517C12.5498 19.517 12.1042 19.2535 11.8863 18.8366C11.6322 18.3506 11.5 17.8147 11.5 17.2713V15.9456C11.5 15.5659 11.1782 15.2581 10.7812 15.2581H9.58117C8.90925 15.2581 8.26516 15.0026 7.78986 14.5484C7.31491 14.0939 7.04805 13.4776 7.04792 12.835V12.2113C7.04792 11.4489 7.42353 10.7308 8.06113 10.273L9.34004 9.35532C9.77859 9.04076 10.3119 8.87066 10.8601 8.87052H10.9014C11.2946 8.87052 11.6827 8.9579 12.0342 9.12645L12.7168 9.4529C12.8874 9.53452 13.0845 9.54782 13.2653 9.49016L15.4592 8.79069C15.7527 8.6971 15.9507 8.43452 15.9507 8.13867C15.9507 7.75899 15.6289 7.45117 15.2319 7.45117H14.7641C14.5735 7.45117 14.3908 7.37887 14.2558 7.2498L13.9349 6.94286C13.8682 6.87901 13.789 6.82836 13.7018 6.79381C13.6146 6.75925 13.5211 6.74148 13.4267 6.74149H9.25101C8.85407 6.74149 8.53226 6.43367 8.53226 6.05399V5.85883C8.53226 5.54347 8.75669 5.26847 9.07665 5.19173L9.74671 5.03161C9.92014 4.98992 10.0713 4.88835 10.1705 4.74597L10.5452 4.20883C10.6783 4.01766 10.9027 3.90278 11.1429 3.90278H12.2656C12.6625 3.90278 12.9843 3.59496 12.9843 3.21528V2.25278C16.6578 2.8223 19.6084 5.45653 20.4927 8.87097H19.6381C19.2412 8.87097 18.9194 9.17879 18.9194 9.55847Z" fill="black"/>
</svg>
