<svg width="28" height="23" viewBox="0 0 28 23" fill="none" xmlns="http://www.w3.org/2000/svg">
<path d="M27.095 8.09896L18.7012 7.04962L14.9489 0.506195C14.8464 0.32704 14.6778 0.182009 14.4695 0.0938536C13.9472 -0.127957 13.3124 0.0568851 13.0513 0.506195L9.29898 7.04962L0.905123 8.09896C0.673705 8.12739 0.462123 8.22124 0.30013 8.36342C0.10429 8.53657 -0.00362635 8.76951 9.30496e-05 9.01106C0.00381244 9.25261 0.118864 9.48301 0.319966 9.65163L6.39303 14.7448L4.95824 21.9365C4.92459 22.1038 4.94612 22.2759 5.02037 22.4332C5.09462 22.5905 5.21862 22.7268 5.37833 22.8266C5.53803 22.9263 5.72703 22.9856 5.92391 22.9977C6.12079 23.0098 6.31767 22.9742 6.49221 22.8949L14.0001 19.4995L21.5079 22.8949C21.7129 22.9887 21.9509 23.02 22.179 22.9859C22.7543 22.9006 23.1411 22.4314 23.0419 21.9365L21.6071 14.7448L27.6802 9.65163C27.8455 9.51229 27.9546 9.33029 27.9876 9.13123C28.0769 8.63358 27.6736 8.17289 27.095 8.09896Z" fill="black"/>
</svg>
